<svg width="12" height="13" viewBox="0 0 12 13" fill="none" xmlns="http://www.w3.org/2000/svg">
<g opacity="0.6">
<path d="M5.47241 4.46441H6.85543V5.74258H7.76812V1.43747C7.76812 1.14034 7.4753 0.899414 7.11384 0.899414H0.654717C0.293255 0.899414 0 1.14034 0 1.43747V12.3614C0 12.6586 0.293225 12.8994 0.654717 12.8994H2.97854V9.40187H4.77866V6.47459C4.77866 6.15662 5.06328 5.89265 5.4722 5.78958V4.46443H5.47241V4.46441ZM5.47241 1.97563H6.85543V3.58991H5.47241V1.97563ZM2.31932 11.052H0.936384V9.43768H2.31935V11.052H2.31932ZM2.31932 8.68869H0.936384V7.0743H2.31935V8.68869H2.31932ZM2.31932 6.07869H0.936384V4.46441H2.31935V6.07869H2.31932ZM2.31932 3.59003H0.936384V1.97563H2.31935V3.59003H2.31932ZM4.62586 8.68869H3.24315V7.0743H4.62586V8.68869ZM4.62586 6.07869H3.24315V4.46441H4.62586V6.07869ZM4.62586 3.59003H3.24315V1.97563H4.62586V3.59003ZM11.4455 6.17302H5.97482C5.6686 6.17302 5.42032 6.30801 5.42032 6.47459V12.5977C5.42032 12.7645 5.6686 12.8994 5.97482 12.8994H7.94316V10.9389H9.52363V12.8994H11.4455C11.7517 12.8994 12 12.7645 12 12.5977V6.47459C12 6.30801 11.7516 6.17302 11.4455 6.17302ZM7.3845 11.8638H6.21327V10.959H7.3845V11.8638ZM7.3845 10.5391H6.21327V9.63432H7.3845V10.5391ZM7.3845 9.07625H6.21327V8.17146H7.3845V9.07625ZM7.3845 7.6811H6.21327V6.77622H7.3845V7.6811ZM9.33856 10.5391H8.16729V9.63432H9.33856V10.5391ZM9.33856 9.07625H8.16729V8.17146H9.33856V9.07625ZM9.33856 7.6811H8.16729V6.77622H9.33856V7.6811ZM11.2269 11.884H10.0556V10.9792H11.2269V11.884ZM11.2269 10.5391H10.0556V9.63432H11.2269V10.5391ZM11.2269 9.07625H10.0556V8.17146H11.2269V9.07625ZM11.2269 7.6811H10.0556V6.77622H11.2269V7.6811Z" fill="white"/>
</g>
</svg>
