<svg width="12" height="12" viewBox="0 0 12 12" fill="none" xmlns="http://www.w3.org/2000/svg">
<g opacity="0.6">
<path d="M11.5102 2.48804C11.0204 2.48804 10.5306 2.48804 10.0408 2.48804C10.0408 2.04721 10.0408 1.60641 10.0408 1.16559C10.0408 0.895076 9.82154 0.675781 9.55101 0.675781C7.18366 0.675781 4.81632 0.675781 2.44896 0.675781C2.17845 0.675781 1.95916 0.895056 1.95916 1.16559C1.95916 1.60641 1.95916 2.04721 1.95916 2.48804C1.46936 2.48804 0.97957 2.48804 0.489765 2.48804C0.219275 2.48804 0 2.70733 0 2.97784C0 4.57785 0 6.17785 0 7.77785C0 8.04836 0.219275 8.26766 0.489805 8.26766C0.979609 8.26766 1.46939 8.26766 1.9592 8.26766C1.9592 8.84601 1.9592 9.42436 1.9592 10.0027C1.9592 10.2848 1.9592 10.5669 1.9592 10.849C1.9592 11.0122 1.99222 11.1341 2.11843 11.2495C2.17722 11.3033 2.23998 11.3381 2.31665 11.3597C2.38765 11.3796 2.45783 11.3779 2.52959 11.3779C3.6864 11.3779 4.8432 11.3779 5.99999 11.3779C7.15678 11.3779 8.3136 11.3779 9.47039 11.3779C9.54219 11.3779 9.61243 11.3796 9.68347 11.3596C9.76019 11.3381 9.82302 11.3032 9.88178 11.2493C10.008 11.1337 10.0408 11.0117 10.0408 10.8484C10.0408 10.5662 10.0408 10.2839 10.0408 10.0017C10.0408 9.4237 10.0408 8.84568 10.0408 8.26768C10.5306 8.26768 11.0204 8.26768 11.5102 8.26768C11.7807 8.26768 12 8.0484 12 7.77787C12 6.17787 12 4.57787 12 2.97786C12 2.70735 11.7807 2.48804 11.5102 2.48804ZM1.22449 4.21457C0.987805 4.21457 0.795923 4.02269 0.795923 3.786C0.795923 3.54932 0.987805 3.35743 1.22449 3.35743C1.46118 3.35743 1.65306 3.54932 1.65306 3.786C1.65306 4.02269 1.46118 4.21457 1.22449 4.21457ZM9.55103 10.8881H2.44898V7.01867H9.55103V10.8881ZM9.55103 2.48804C7.18368 2.48804 4.81634 2.48804 2.44898 2.48804C2.44898 2.21049 2.44898 1.93292 2.44898 1.65539C2.44898 1.38488 2.66826 1.16559 2.93879 1.16559C4.9796 1.16559 7.02044 1.16559 9.06125 1.16559C9.33176 1.16559 9.55105 1.38486 9.55105 1.65539C9.55103 1.93296 9.55103 2.21051 9.55103 2.48804Z" fill="white"/>
</g>
</svg>
