<svg width="85" height="22" viewBox="0 0 85 22" fill="none" xmlns="http://www.w3.org/2000/svg">
<path d="M2.8016 0.755999V18.368H13.1056V21H0.0855955V0.755999H2.8016ZM16.7281 10.892C16.7281 9.044 17.1948 7.32667 18.1281 5.74C19.0614 4.15333 20.3121 2.89333 21.8801 1.96C23.4668 1.008 25.1934 0.532 27.0601 0.532C28.9081 0.532 30.6254 1.008 32.2121 1.96C33.7988 2.89333 35.0588 4.15333 35.9921 5.74C36.9441 7.32667 37.4201 9.044 37.4201 10.892C37.4201 12.7587 36.9534 14.4853 36.0201 16.072C35.0868 17.6587 33.8174 18.9187 32.2121 19.852C30.6254 20.7667 28.9081 21.224 27.0601 21.224C25.1934 21.224 23.4668 20.7667 21.8801 19.852C20.2934 18.9373 19.0334 17.696 18.1001 16.128C17.1854 14.5413 16.7281 12.796 16.7281 10.892ZM19.5281 10.92C19.5281 12.3013 19.8641 13.58 20.5361 14.756C21.2081 15.932 22.1228 16.8653 23.2801 17.556C24.4561 18.2467 25.7348 18.592 27.1161 18.592C28.4974 18.592 29.7574 18.256 30.8961 17.584C32.0534 16.8933 32.9588 15.96 33.6121 14.784C34.2841 13.5893 34.6201 12.292 34.6201 10.892C34.6201 9.492 34.2841 8.19467 33.6121 7C32.9401 5.80533 32.0254 4.86267 30.8681 4.172C29.7108 3.48133 28.4414 3.136 27.0601 3.136C25.6788 3.136 24.4094 3.49067 23.2521 4.2C22.0948 4.89067 21.1801 5.83333 20.5081 7.028C19.8548 8.22267 19.5281 9.52 19.5281 10.92ZM58.7119 19.264C58.0959 19.7493 57.1252 20.1973 55.7999 20.608C54.4932 21.0187 53.2799 21.224 52.1599 21.224C50.0506 21.224 48.1932 20.7947 46.5879 19.936C44.9826 19.0587 43.7412 17.864 42.8639 16.352C42.0052 14.84 41.5759 13.1413 41.5759 11.256C41.5759 9.05333 42.0426 7.14933 42.9759 5.544C43.9092 3.92 45.1692 2.67867 46.7559 1.82C48.3426 0.961333 50.0786 0.532 51.9639 0.532C53.1026 0.532 54.1759 0.672 55.1839 0.951999C56.1919 1.21333 57.0972 1.568 57.8999 2.016L57.0039 4.508C56.4066 4.172 55.6506 3.88267 54.7359 3.64C53.8399 3.37867 53.0279 3.248 52.2999 3.248C50.7319 3.248 49.3412 3.56533 48.1279 4.2C46.9332 4.83467 46.0092 5.74 45.3559 6.916C44.7026 8.092 44.3759 9.464 44.3759 11.032C44.3759 12.488 44.7026 13.7853 45.3559 14.924C46.0092 16.0627 46.9332 16.9493 48.1279 17.584C49.3226 18.2 50.6852 18.508 52.2159 18.508C52.9252 18.508 53.6159 18.4427 54.2879 18.312C54.9599 18.1627 55.5199 17.9573 55.9679 17.696V13.692H51.9359V11.088H58.7119V19.264ZM63.4706 10.892C63.4706 9.044 63.9373 7.32667 64.8706 5.74C65.8039 4.15333 67.0546 2.89333 68.6226 1.96C70.2093 1.008 71.9359 0.532 73.8026 0.532C75.6506 0.532 77.3679 1.008 78.9546 1.96C80.5413 2.89333 81.8013 4.15333 82.7346 5.74C83.6866 7.32667 84.1626 9.044 84.1626 10.892C84.1626 12.7587 83.6959 14.4853 82.7626 16.072C81.8293 17.6587 80.5599 18.9187 78.9546 19.852C77.3679 20.7667 75.6506 21.224 73.8026 21.224C71.9359 21.224 70.2093 20.7667 68.6226 19.852C67.0359 18.9373 65.7759 17.696 64.8426 16.128C63.9279 14.5413 63.4706 12.796 63.4706 10.892ZM66.2706 10.92C66.2706 12.3013 66.6066 13.58 67.2786 14.756C67.9506 15.932 68.8653 16.8653 70.0226 17.556C71.1986 18.2467 72.4773 18.592 73.8586 18.592C75.2399 18.592 76.4999 18.256 77.6386 17.584C78.7959 16.8933 79.7013 15.96 80.3546 14.784C81.0266 13.5893 81.3626 12.292 81.3626 10.892C81.3626 9.492 81.0266 8.19467 80.3546 7C79.6826 5.80533 78.7679 4.86267 77.6106 4.172C76.4533 3.48133 75.1839 3.136 73.8026 3.136C72.4213 3.136 71.1519 3.49067 69.9946 4.2C68.8373 4.89067 67.9226 5.83333 67.2506 7.028C66.5973 8.22267 66.2706 9.52 66.2706 10.92Z" fill="white"/>
</svg>
