<svg width="12" height="13" viewBox="0 0 12 13" fill="none" xmlns="http://www.w3.org/2000/svg">
<g opacity="0.6">
<path d="M11.731 10.4631L9.87777 8.60971C9.50864 8.24207 8.89736 8.25324 8.51538 8.63536L7.58172 9.56881C7.52274 9.5363 7.46168 9.50234 7.39749 9.46631C6.80789 9.13963 6.00093 8.69186 5.15177 7.84208C4.3001 6.99051 3.85192 6.18231 3.52424 5.59234C3.48966 5.52983 3.45653 5.46957 3.42381 5.41234L4.05043 4.78665L4.3585 4.4782C4.74107 4.09553 4.75162 3.48442 4.38336 3.11571L2.53014 1.26208C2.16188 0.89389 1.55033 0.90506 1.16776 1.28773L0.645456 1.81303L0.659729 1.8272C0.484595 2.05067 0.338248 2.30841 0.229341 2.58634C0.128949 2.85091 0.0664456 3.10337 0.0378657 3.35635C-0.206839 5.385 0.720198 7.23905 3.23606 9.75494C6.71374 13.2324 9.5163 12.9697 9.6372 12.9569C9.90052 12.9254 10.1529 12.8625 10.4093 12.7629C10.6849 12.6552 10.9424 12.5091 11.1658 12.3343L11.1772 12.3445L11.7063 11.8263C12.0881 11.4437 12.0991 10.8324 11.731 10.4631Z" fill="white"/>
</g>
</svg>
